<svg xmlns="http://www.w3.org/2000/svg" xmlns:xlink="http://www.w3.org/1999/xlink" width="500" zoomAndPan="magnify" viewBox="0 0 375 374.999991" height="500" preserveAspectRatio="xMidYMid meet" version="1.0"><defs><clipPath id="fa770b148e"><path d="M 108.757812 112.816406 L 180.367188 112.816406 L 180.367188 184.421875 L 108.757812 184.421875 Z M 108.757812 112.816406 " clip-rule="nonzero"/></clipPath><clipPath id="c36fdac523"><path d="M 144.5625 112.816406 C 124.789062 112.816406 108.757812 128.84375 108.757812 148.621094 C 108.757812 168.394531 124.789062 184.421875 144.5625 184.421875 C 164.335938 184.421875 180.367188 168.394531 180.367188 148.621094 C 180.367188 128.84375 164.335938 112.816406 144.5625 112.816406 Z M 144.5625 112.816406 " clip-rule="nonzero"/></clipPath><clipPath id="7f57a53ee6"><path d="M 0.757812 0.816406 L 72.367188 0.816406 L 72.367188 72.421875 L 0.757812 72.421875 Z M 0.757812 0.816406 " clip-rule="nonzero"/></clipPath><clipPath id="37cc738d3b"><path d="M 36.5625 0.816406 C 16.789062 0.816406 0.757812 16.84375 0.757812 36.621094 C 0.757812 56.394531 16.789062 72.421875 36.5625 72.421875 C 56.335938 72.421875 72.367188 56.394531 72.367188 36.621094 C 72.367188 16.84375 56.335938 0.816406 36.5625 0.816406 Z M 36.5625 0.816406 " clip-rule="nonzero"/></clipPath><clipPath id="9043117cb7"><rect x="0" width="73" y="0" height="73"/></clipPath><clipPath id="8a1149fe4f"><path d="M 209 107 L 269 107 L 269 167 L 209 167 Z M 209 107 " clip-rule="nonzero"/></clipPath><clipPath id="694e019a5f"><path d="M 190.59375 143.738281 L 245.75 88.582031 L 287.644531 130.476562 L 232.488281 185.632812 Z M 190.59375 143.738281 " clip-rule="nonzero"/></clipPath><clipPath id="0581463eaf"><path d="M 190.59375 143.738281 L 245.75 88.582031 L 287.644531 130.476562 L 232.488281 185.632812 Z M 190.59375 143.738281 " clip-rule="nonzero"/></clipPath><clipPath id="b69918d8fc"><path d="M 83 193 L 181 193 L 181 291 L 83 291 Z M 83 193 " clip-rule="nonzero"/></clipPath><clipPath id="7a18bd9678"><path d="M 83.148438 248.621094 L 138.304688 193.46875 L 180.199219 235.363281 L 125.046875 290.519531 Z M 83.148438 248.621094 " clip-rule="nonzero"/></clipPath><clipPath id="07db102d60"><path d="M 19 19 L 79 19 L 79 79 L 19 79 Z M 19 19 " clip-rule="nonzero"/></clipPath><clipPath id="6dcbc2b1b5"><path d="M 0.148438 55.621094 L 55.304688 0.46875 L 97.199219 42.363281 L 42.046875 97.519531 Z M 0.148438 55.621094 " clip-rule="nonzero"/></clipPath><clipPath id="b15d9fdc95"><path d="M 55.421875 0.351562 L 0.265625 55.503906 L 42.164062 97.402344 L 97.316406 42.246094 Z M 55.421875 0.351562 " clip-rule="nonzero"/></clipPath><clipPath id="d491669c62"><rect x="0" width="98" y="0" height="98"/></clipPath><clipPath id="4fb483ced4"><path d="M 185.617188 185.679688 L 269.921875 185.679688 L 269.921875 269.65625 L 185.617188 269.65625 Z M 185.617188 185.679688 " clip-rule="nonzero"/></clipPath><clipPath id="d15d38bb15"><path d="M 269.683594 189.429688 L 269.683594 265.90625 C 269.683594 266.902344 269.289062 267.855469 268.585938 268.558594 C 267.882812 269.261719 266.929688 269.65625 265.933594 269.65625 L 189.367188 269.65625 C 188.375 269.65625 187.421875 269.261719 186.714844 268.558594 C 186.011719 267.855469 185.617188 266.902344 185.617188 265.90625 L 185.617188 189.429688 C 185.617188 188.4375 186.011719 187.480469 186.714844 186.777344 C 187.421875 186.074219 188.375 185.679688 189.367188 185.679688 L 265.933594 185.679688 C 266.929688 185.679688 267.882812 186.074219 268.585938 186.777344 C 269.289062 187.480469 269.683594 188.4375 269.683594 189.429688 Z M 269.683594 189.429688 " clip-rule="nonzero"/></clipPath><clipPath id="97bfde6612"><path d="M 0.617188 0.679688 L 84.761719 0.679688 L 84.761719 84.65625 L 0.617188 84.65625 Z M 0.617188 0.679688 " clip-rule="nonzero"/></clipPath><clipPath id="b42d7cadbc"><path d="M 84.683594 4.429688 L 84.683594 80.90625 C 84.683594 81.902344 84.289062 82.855469 83.585938 83.558594 C 82.882812 84.261719 81.929688 84.65625 80.933594 84.65625 L 4.367188 84.65625 C 3.375 84.65625 2.421875 84.261719 1.714844 83.558594 C 1.011719 82.855469 0.617188 81.902344 0.617188 80.90625 L 0.617188 4.429688 C 0.617188 3.4375 1.011719 2.480469 1.714844 1.777344 C 2.421875 1.074219 3.375 0.679688 4.367188 0.679688 L 80.933594 0.679688 C 81.929688 0.679688 82.882812 1.074219 83.585938 1.777344 C 84.289062 2.480469 84.683594 3.4375 84.683594 4.429688 Z M 84.683594 4.429688 " clip-rule="nonzero"/></clipPath><clipPath id="ff5812d90d"><rect x="0" width="85" y="0" height="85"/></clipPath></defs><path stroke-linecap="round" transform="matrix(0.75, 0, 0, 0.75, 38.790119, 42.350652)" fill="none" stroke-linejoin="miter" d="M 8.498592 8.501215 L 77.514221 8.501215 " stroke="#3300ff" stroke-width="17" stroke-opacity="1" stroke-miterlimit="4"/><path stroke-linecap="round" transform="matrix(0.75, 0, 0, 0.75, 269.684048, 42.350652)" fill="none" stroke-linejoin="miter" d="M 8.499394 8.501215 L 80.202524 8.501215 " stroke="#3300ff" stroke-width="17" stroke-opacity="1" stroke-miterlimit="4"/><path stroke-linecap="round" transform="matrix(0.75, 0, 0, 0.75, 269.684048, 319.899296)" fill="none" stroke-linejoin="miter" d="M 8.499394 8.498856 L 77.515024 8.498856 " stroke="#3300ff" stroke-width="17" stroke-opacity="1" stroke-miterlimit="4"/><path stroke-linecap="round" transform="matrix(0.75, 0, 0, 0.75, 38.790119, 319.899296)" fill="none" stroke-linejoin="miter" d="M 8.498592 8.498856 L 77.514221 8.498856 " stroke="#3300ff" stroke-width="17" stroke-opacity="1" stroke-miterlimit="4"/><path stroke-linecap="round" transform="matrix(0, -0.75, 0.75, 0, 323.54345, 109.710278)" fill="none" stroke-linejoin="miter" d="M 8.499122 8.499358 L 78.374126 8.499358 " stroke="#3300ff" stroke-width="17" stroke-opacity="1" stroke-miterlimit="4"/><path stroke-linecap="round" transform="matrix(0, -0.75, 0.75, 0, 38.695146, 109.710278)" fill="none" stroke-linejoin="miter" d="M 8.499122 8.500223 L 78.374126 8.500223 " stroke="#3300ff" stroke-width="17" stroke-opacity="1" stroke-miterlimit="4"/><path stroke-linecap="round" transform="matrix(0, -0.75, 0.75, 0, 38.696666, 331.652409)" fill="none" stroke-linejoin="miter" d="M 8.500088 8.498196 L 84.35426 8.498196 " stroke="#3300ff" stroke-width="17" stroke-opacity="1" stroke-miterlimit="4"/><path stroke-linecap="round" transform="matrix(0, -0.75, 0.75, 0, 323.544974, 331.652409)" fill="none" stroke-linejoin="miter" d="M 8.500088 8.502535 L 84.35426 8.502535 " stroke="#3300ff" stroke-width="17" stroke-opacity="1" stroke-miterlimit="4"/><path stroke-linecap="round" transform="matrix(0.000000001309, -0.75, 0.75, 0.000000001309, 290.442115, 298.850928)" fill="none" stroke-linejoin="miter" d="M 6.499154 6.499055 L 289.098131 6.499055 " stroke="#3300ff" stroke-width="13" stroke-opacity="1" stroke-miterlimit="4"/><path stroke-linecap="round" transform="matrix(0.75, -0.000000000000000279, 0.000000000000000279, 0.75, 71.933028, 77.307806)" fill="none" stroke-linejoin="miter" d="M 6.500755 6.501051 L 297.464316 6.501051 " stroke="#3300ff" stroke-width="13" stroke-opacity="1" stroke-miterlimit="4"/><path stroke-linecap="round" transform="matrix(0.75, -0.000000000000000186, 0.000000000000000186, 0.75, 73.278823, 288.948732)" fill="none" stroke-linejoin="miter" d="M 6.498028 6.500649 L 297.466797 6.500649 " stroke="#3300ff" stroke-width="13" stroke-opacity="1" stroke-miterlimit="4"/><path stroke-linecap="round" transform="matrix(0.000000001309, -0.75, 0.75, 0.000000001309, 72.085202, 298.850928)" fill="none" stroke-linejoin="miter" d="M 6.499154 6.500981 L 289.098131 6.50098 " stroke="#3300ff" stroke-width="13" stroke-opacity="1" stroke-miterlimit="4"/><g clip-path="url(#fa770b148e)"><g clip-path="url(#c36fdac523)"><g transform="matrix(1, 0, 0, 1, 108, 112)"><g clip-path="url(#9043117cb7)"><g clip-path="url(#7f57a53ee6)"><g clip-path="url(#37cc738d3b)"><path fill="#00f0ff" d="M 0.757812 0.816406 L 72.367188 0.816406 L 72.367188 72.421875 L 0.757812 72.421875 Z M 0.757812 0.816406 " fill-opacity="1" fill-rule="nonzero"/></g></g></g></g></g></g><g clip-path="url(#8a1149fe4f)"><g clip-path="url(#694e019a5f)"><g clip-path="url(#0581463eaf)"><path fill="#00f0ff" d="M 262.546875 107.664062 L 229.191406 107.664062 C 227.570312 107.664062 226.046875 108.292969 224.902344 109.433594 C 223.761719 110.578125 223.132812 112.101562 223.132812 113.722656 C 223.132812 115.34375 223.761719 116.867188 224.902344 118.011719 C 226.046875 119.15625 227.570312 119.785156 229.191406 119.785156 L 247.90625 119.785156 L 211.5625 156.128906 C 209.199219 158.492188 209.199219 162.34375 211.5625 164.707031 C 213.925781 167.070312 217.777344 167.070312 220.140625 164.707031 L 256.484375 128.359375 L 256.484375 147.074219 C 256.484375 148.695312 257.113281 150.21875 258.257812 151.363281 C 259.398438 152.507812 260.925781 153.136719 262.546875 153.136719 C 264.164062 153.136719 265.691406 152.507812 266.832031 151.363281 C 267.976562 150.21875 268.605469 148.695312 268.605469 147.074219 L 268.605469 113.78125 C 268.632812 112.167969 268.015625 110.636719 266.851562 109.472656 C 265.699219 108.300781 264.183594 107.664062 262.546875 107.664062 Z M 262.546875 107.664062 " fill-opacity="1" fill-rule="nonzero"/></g></g></g><g clip-path="url(#b69918d8fc)"><g clip-path="url(#7a18bd9678)"><g transform="matrix(1, 0, 0, 1, 83, 193)"><g clip-path="url(#d491669c62)"><g clip-path="url(#07db102d60)"><g clip-path="url(#6dcbc2b1b5)"><g clip-path="url(#b15d9fdc95)"><path fill="#00f0ff" d="M 19.347656 72.300781 L 19.347656 38.949219 C 19.347656 37.328125 19.976562 35.804688 21.117188 34.660156 C 22.261719 33.519531 23.785156 32.890625 25.40625 32.890625 C 27.027344 32.890625 28.550781 33.519531 29.695312 34.660156 C 30.839844 35.804688 31.46875 37.328125 31.46875 38.949219 L 31.46875 57.664062 L 67.8125 21.320312 C 70.175781 18.957031 74.027344 18.957031 76.390625 21.320312 C 78.753906 23.683594 78.753906 27.535156 76.390625 29.898438 L 40.042969 66.242188 L 58.761719 66.242188 C 60.378906 66.242188 61.90625 66.871094 63.046875 68.015625 C 64.191406 69.15625 64.820312 70.683594 64.820312 72.300781 C 64.820312 73.921875 64.191406 75.445312 63.046875 76.589844 C 61.90625 77.734375 60.378906 78.363281 58.761719 78.363281 L 25.464844 78.363281 C 23.855469 78.390625 22.320312 77.773438 21.15625 76.609375 C 19.984375 75.457031 19.347656 73.941406 19.347656 72.300781 Z M 19.347656 72.300781 " fill-opacity="1" fill-rule="nonzero"/></g></g></g></g></g></g></g><g clip-path="url(#4fb483ced4)"><g clip-path="url(#d15d38bb15)"><g transform="matrix(1, 0, 0, 1, 185, 185)"><g clip-path="url(#ff5812d90d)"><g clip-path="url(#97bfde6612)"><g clip-path="url(#b42d7cadbc)"><path fill="#3300ff" d="M 0.617188 0.679688 L 84.59375 0.679688 L 84.59375 84.65625 L 0.617188 84.65625 Z M 0.617188 0.679688 " fill-opacity="1" fill-rule="nonzero"/></g></g></g></g></g></g></svg>